<svg xmlns="http://www.w3.org/2000/svg" viewBox="0 0 500 500"><g id="freepik--Mountains--inject-250"><path d="M377.39,232l-72.3-4L275.7,215.83l-38.26-7.27-19.85-11.88-3-10.9H208l-5.28,1.41-4.63-5.7V164.32l-1.65-12.54V138.9l-6.27-3v13.54L191.51,167l-3.3,11.89L178,181.49l1.65-39.62L173,97.3h-8.28l-3-3.3-27.07,6.27-4.62,3.63-9.25.66-4.62,44.91-2,10.56v18.82l-4.29,2-4.29-3V143.52l-.91-6.77-4.79,5s.25,10.73,0,11.06S99.31,163,99.31,163l-.74,16-3.72-3.38v-4.46l-.66-11.3-3.88,1.48v9.82l-.9,6.85-8.26,9.91L77.52,194l-2.26,16.18L58.1,224.41,38.29,232Z" style="fill:#FFC100"></path><path d="M377.39,232l-72.3-4L275.7,215.83l-38.26-7.27-19.85-11.88-3-10.9H208l-5.28,1.41-4.63-5.7V164.32l-1.65-12.54V138.9l-6.27-3v13.54L191.51,167l-3.3,11.89L178,181.49l1.65-39.62L173,97.3h-8.28l-3-3.3-27.07,6.27-4.62,3.63-9.25.66-4.62,44.91-2,10.56v18.82l-4.29,2-4.29-3V143.52l-.91-6.77-4.79,5s.25,10.73,0,11.06S99.31,163,99.31,163l-.74,16-3.72-3.38v-4.46l-.66-11.3-3.88,1.48v9.82l-.9,6.85-8.26,9.91L77.52,194l-2.26,16.18L58.1,224.41,38.29,232Z" style="opacity:0.4"></path><path d="M462.09,232s-16.83-10.86-19.85-10.86-20.34-6.51-20.34-6.51-5-36.91-5-38.46V155.4l1.51-11.79-1.51-12.71h-2.51l.69,11.32s-4,5.73-4.08,6-.76,18.38-.76,18.38L405.63,172l-1.51-30.16-2.38-4V102.13l-4.15-5.43-20.22-5.58-3.77,3L371,88.87l-11.8,4.73-1.26,44.2-4.77,5.89-.32-22.1-1.82-4.5-2.13-.31-.26,15.74-4,16.75-.57,31.17-4.16,9.7-6.79-5.07-10.46,3.72-.84,14-18.26,14.68-5.27,7.44L271.17,232Z" style="fill:#FFC100"></path><path d="M462.09,232s-16.83-10.86-19.85-10.86-20.34-6.51-20.34-6.51-5-36.91-5-38.46V155.4l1.51-11.79-1.51-12.71h-2.51l.69,11.32s-4,5.73-4.08,6-.76,18.38-.76,18.38L405.63,172l-1.51-30.16-2.38-4V102.13l-4.15-5.43-20.22-5.58-3.77,3L371,88.87l-11.8,4.73-1.26,44.2-4.77,5.89-.32-22.1-1.82-4.5-2.13-.31-.26,15.74-4,16.75-.57,31.17-4.16,9.7-6.79-5.07-10.46,3.72-.84,14-18.26,14.68-5.27,7.44L271.17,232Z" style="opacity:0.4"></path><polygon points="38.65 232.01 41.96 207.85 46.88 201.56 53.24 213.93 63.22 212.51 68.71 204.51 74.19 198.76 85.65 198.76 83.22 203.14 91.7 207.25 122.35 210.12 144.53 213.54 163.14 209.17 164.24 204.51 165.33 203.69 165.88 200.13 166.97 200.96 166.97 202.89 167.52 203.14 168.07 199.59 169.71 199.31 170.53 203.42 171.35 203.14 173.27 200.13 181.75 197.94 188.6 202.87 207.21 207.8 247.72 211.63 265.79 209.17 274.82 211.9 300.44 210.12 309.66 213.54 317.79 211.36 319.71 209.44 318.61 207.8 322.99 208.62 324.63 211.36 325.45 210.81 325.73 209.17 326.28 209.17 326.56 210.26 327.64 211.36 347.63 210.26 354.47 212.72 382.44 207.52 393.92 211.27 398.54 206.6 406.59 205.46 419.12 220.4 449.38 222.42 462.09 232.01 38.65 232.01 38.65 232.01" style="fill:#FFC100"></polygon><polygon points="38.65 232.01 41.96 207.85 46.88 201.56 53.24 213.93 63.22 212.51 68.71 204.51 74.19 198.76 85.65 198.76 83.22 203.14 91.7 207.25 122.35 210.12 144.53 213.54 163.14 209.17 164.24 204.51 165.33 203.69 165.88 200.13 166.97 200.96 166.97 202.89 167.52 203.14 168.07 199.59 169.71 199.31 170.53 203.42 171.35 203.14 173.27 200.13 181.75 197.94 188.6 202.87 207.21 207.8 247.72 211.63 265.79 209.17 274.82 211.9 300.44 210.12 309.66 213.54 317.79 211.36 319.71 209.44 318.61 207.8 322.99 208.62 324.63 211.36 325.45 210.81 325.73 209.17 326.28 209.17 326.56 210.26 327.64 211.36 347.63 210.26 354.47 212.72 382.44 207.52 393.92 211.27 398.54 206.6 406.59 205.46 419.12 220.4 449.38 222.42 462.09 232.01 38.65 232.01 38.65 232.01" style="opacity:0.6000000000000001"></polygon></g><g id="freepik--Camel--inject-250"><path d="M179.3,212.57a15.2,15.2,0,0,0-1.74,2.37c-.07.29-.14,2.1-.18,2.25s-1.52,2.77-1.52,2.77-1,1.33-1.14,1.55a5.75,5.75,0,0,0-.5,2.5l.39-1.33a14.05,14.05,0,0,0-.33,1.79c0,.36,0,1.22,0,1.22l.59-1.93-.55,2.37s.79-1,.93-1.25.57-1.59.57-1.59-.28,1-.31,1.1l-.29.77a25.08,25.08,0,0,0,1.27-2.2,7,7,0,0,0,.05-2.49s1.53-2.51,1.64-2.84.12-2,.15-2.25a9.35,9.35,0,0,1,.93-1.43Z" style="fill:#FFC100"></path><path d="M179.3,212.57a15.2,15.2,0,0,0-1.74,2.37c-.07.29-.14,2.1-.18,2.25s-1.52,2.77-1.52,2.77-1,1.33-1.14,1.55a5.75,5.75,0,0,0-.5,2.5l.39-1.33a14.05,14.05,0,0,0-.33,1.79c0,.36,0,1.22,0,1.22l.59-1.93-.55,2.37s.79-1,.93-1.25.57-1.59.57-1.59-.28,1-.31,1.1l-.29.77a25.08,25.08,0,0,0,1.27-2.2,7,7,0,0,0,.05-2.49s1.53-2.51,1.64-2.84.12-2,.15-2.25a9.35,9.35,0,0,1,.93-1.43Z" style="opacity:0.8"></path><path d="M179.3,212.57V214s-.45.59-.73,1l-.2-1.26C178.75,213.22,179.15,212.72,179.3,212.57Z" style="opacity:0.2"></path><path d="M184.42,221.76s1.78,5.5,1.82,6.14-.38,5.46-.31,5.65a6.52,6.52,0,0,0,1.29.92s2.7,3.34,3.1,4.13,2.1,3.77,2.36,4a3.72,3.72,0,0,0,1,.52,11,11,0,0,0-.66.92,4.69,4.69,0,0,0-.25,1.15h5.1a2.87,2.87,0,0,0-.38-.89,11,11,0,0,0-2.06-1,.94.94,0,0,1-.28-.57c0-.29-3.59-5.37-4.09-6.22s-1.71-2.49-1.77-2.76.29-7.6.39-8,2-4,2-4Z" style="fill:#FFC100"></path><path d="M184.42,221.76s1.78,5.5,1.82,6.14-.38,5.46-.31,5.65a6.52,6.52,0,0,0,1.29.92s2.7,3.34,3.1,4.13,2.1,3.77,2.36,4a3.72,3.72,0,0,0,1,.52,11,11,0,0,0-.66.92,4.69,4.69,0,0,0-.25,1.15h5.1a2.87,2.87,0,0,0-.38-.89,11,11,0,0,0-2.06-1,.94.94,0,0,1-.28-.57c0-.29-3.59-5.37-4.09-6.22s-1.71-2.49-1.77-2.76.29-7.6.39-8,2-4,2-4Z" style="opacity:0.9"></path><path d="M191.74,221.76s-.78,1.45-1.37,2.61l-5,.55c-.48-1.57-1-3.16-1-3.16Z" style="opacity:0.2"></path><path d="M205.26,221.42s5.65,5.21,6.14,5.75a15,15,0,0,1,2.12,3,34.07,34.07,0,0,1-2.32,5.19,39.76,39.76,0,0,0-2.41,3.43,3.53,3.53,0,0,0,0,1.19,1.17,1.17,0,0,0-.62.35,2.07,2.07,0,0,0-.4.63l3.77,3.63a6.67,6.67,0,0,0,.14-1.16,12.89,12.89,0,0,0-1.58-2.73,2.93,2.93,0,0,0,.83-.44c.17-.21,1.42-3.85,1.59-4.36s2.46-4,2.46-4a4.91,4.91,0,0,0,1-1.63c.1-.61-.85-1.46-.85-1.46s-1.43-2.85-2.27-4.23c-.56-.91-2.38-5.88-2.38-5.88Z" style="fill:#FFC100"></path><path d="M205.26,221.42s5.65,5.21,6.14,5.75a15,15,0,0,1,2.12,3,34.07,34.07,0,0,1-2.32,5.19,39.76,39.76,0,0,0-2.41,3.43,3.53,3.53,0,0,0,0,1.19,1.17,1.17,0,0,0-.62.35,2.07,2.07,0,0,0-.4.63l3.77,3.63a6.67,6.67,0,0,0,.14-1.16,12.89,12.89,0,0,0-1.58-2.73,2.93,2.93,0,0,0,.83-.44c.17-.21,1.42-3.85,1.59-4.36s2.46-4,2.46-4a4.91,4.91,0,0,0,1-1.63c.1-.61-.85-1.46-.85-1.46s-1.43-2.85-2.27-4.23c-.56-.91-2.38-5.88-2.38-5.88Z" style="opacity:0.9"></path><path d="M212.13,222.91l-3.54,1.6-3.33-3.09,5.22-2.78S211.4,221.14,212.13,222.91Z" style="opacity:0.2"></path><path d="M229.72,204.84c-.13.38-.77,1.95-1.21,2.09s-1.34-.23-1.7-.18a15.73,15.73,0,0,0-2.71.49c-.23.18-3.83,2.4-4,2.8s-2.12,9.32-3.65,10.18a30.86,30.86,0,0,1-7.76,2.74l-2.89,8.17a5.41,5.41,0,0,1,.11,1.87,8.36,8.36,0,0,1-.79,1.5c0,.12-.35,5.11-.27,5.41s.63,2.86.61,3a1.35,1.35,0,0,1-.25.42s2.29.65,2.62.82a4.63,4.63,0,0,1,.94,1.05h-5.34s0-.54,0-.77.44-.62.44-.62-.71-.59-.79-.83.29-3.17.3-3.45.08-5.39.08-5.39a10.48,10.48,0,0,1-.44-1.58,8.38,8.38,0,0,1,.61-1.84c0-.08-.38-4.26-.35-6.84-2.3.36-3.46.5-3.46.5-2.79.76-12-.93-13.74-1.25a2.73,2.73,0,0,1-.56.8c-.65.59-8.06,7.54-8.16,8a51.53,51.53,0,0,0-.92,6.26c-.13,2,.24,4.15.17,4.37-.17.53-.27.79-.27.79a17.93,17.93,0,0,1,2.12.79,1.9,1.9,0,0,1,.65,1h-4.47v-.59a7.26,7.26,0,0,1,.43-.88s-.36-.63-.54-.89a37.23,37.23,0,0,1,0-4.49c0-.92,0-7.86,0-8.06s.92-.79,1.12-.89a21.28,21.28,0,0,0,2.44-3.42c.31-.74,1.29-4.47,1.52-5.21-.42-2.14-1.81-5.79-.21-8.58s4.87-7.33,7-8c2.58-.83,6,1.55,7.67,1.55,2.57,0,5.78-2.15,7.62-1s5,8.56,5.58,9.66,3.44,1.33,4.39.77,4.05-11.67,4.44-12.12a17.36,17.36,0,0,1,4.56-2.33c.69,0,3.19,1.64,3.4,1.75s2.43-.3,2.86-.3S229.85,204.45,229.72,204.84Z" style="fill:#FFC100"></path><path d="M229.72,204.84c-.13.38-.77,1.95-1.21,2.09s-1.34-.23-1.7-.18a15.73,15.73,0,0,0-2.71.49c-.23.18-3.83,2.4-4,2.8s-2.12,9.32-3.65,10.18a30.86,30.86,0,0,1-7.76,2.74l-2.89,8.17a5.41,5.41,0,0,1,.11,1.87,8.36,8.36,0,0,1-.79,1.5c0,.12-.35,5.11-.27,5.41s.63,2.86.61,3a1.35,1.35,0,0,1-.25.42s2.29.65,2.62.82a4.63,4.63,0,0,1,.94,1.05h-5.34s0-.54,0-.77.44-.62.44-.62-.71-.59-.79-.83.29-3.17.3-3.45.08-5.39.08-5.39a10.48,10.48,0,0,1-.44-1.58,8.38,8.38,0,0,1,.61-1.84c0-.08-.38-4.26-.35-6.84-2.3.36-3.46.5-3.46.5-2.79.76-12-.93-13.74-1.25a2.73,2.73,0,0,1-.56.8c-.65.59-8.06,7.54-8.16,8a51.53,51.53,0,0,0-.92,6.26c-.13,2,.24,4.15.17,4.37-.17.53-.27.79-.27.79a17.93,17.93,0,0,1,2.12.79,1.9,1.9,0,0,1,.65,1h-4.47v-.59a7.26,7.26,0,0,1,.43-.88s-.36-.63-.54-.89a37.23,37.23,0,0,1,0-4.49c0-.92,0-7.86,0-8.06s.92-.79,1.12-.89a21.28,21.28,0,0,0,2.44-3.42c.31-.74,1.29-4.47,1.52-5.21-.42-2.14-1.81-5.79-.21-8.58s4.87-7.33,7-8c2.58-.83,6,1.55,7.67,1.55,2.57,0,5.78-2.15,7.62-1s5,8.56,5.58,9.66,3.44,1.33,4.39.77,4.05-11.67,4.44-12.12a17.36,17.36,0,0,1,4.56-2.33c.69,0,3.19,1.64,3.4,1.75s2.43-.3,2.86-.3S229.85,204.45,229.72,204.84Z" style="opacity:0.8"></path><g style="opacity:0.8"><path d="M227.7,203.47s-1.26-.07-1.06-.5C226.92,202.36,227.7,203.47,227.7,203.47Z"></path><path d="M222.45,204.1l-2.48.62a2.4,2.4,0,0,1,1.16-.74A3.39,3.39,0,0,1,222.45,204.1Z"></path><path d="M220.63,204.48a.69.69,0,0,0,.65.27c.39-.08.43-.54.43-.54Z"></path><path d="M226.91,206.75a5.86,5.86,0,0,0-1.11-.07,10.86,10.86,0,0,0-1.14,0q-.56,0-1.11.12a7.17,7.17,0,0,1-1.12.15,1.07,1.07,0,0,1-.55-.23c-.17-.12-.34-.24-.52-.35,0,0,0,0,0,0l.44.35a1.56,1.56,0,0,0,.4.27,1,1,0,0,0,.51,0l.57-.08a16.43,16.43,0,0,1,2.33-.24h1.32S226.92,206.75,226.91,206.75Z"></path><path d="M223,207.56a2.36,2.36,0,0,1-1.14.2,1.91,1.91,0,0,1-.5-.19,2.36,2.36,0,0,1-.48-.35s0,0,0,0a2.43,2.43,0,0,0,.44.41,1.36,1.36,0,0,0,.54.26,1.79,1.79,0,0,0,1.17-.34Z"></path></g><path d="M217.31,202.94a4.46,4.46,0,0,0-2.12-1.11,4.1,4.1,0,0,0-2.18.29,7.66,7.66,0,0,0,1.76,1.49,6.68,6.68,0,0,0,1.8.15Z" style="fill:#FFC100"></path><path d="M217.31,202.94a4.46,4.46,0,0,0-2.12-1.11,4.1,4.1,0,0,0-2.18.29,7.66,7.66,0,0,0,1.76,1.49,6.68,6.68,0,0,0,1.8.15Z" style="opacity:0.8"></path><path d="M217,203.25a5.82,5.82,0,0,0-1.64-.93,2.11,2.11,0,0,0-1.05.14,3.26,3.26,0,0,0,.85.72c.25.1,1.49.45,1.49.45Z" style="opacity:0.2"></path><g style="opacity:0.2"><path d="M217.15,216.37a2.28,2.28,0,0,0,0-.45h0a3.37,3.37,0,0,0,0,.44c0,.08,0,.15,0,.23v.23a0,0,0,0,0,.09,0,1.79,1.79,0,0,0,0-.23A.88.88,0,0,0,217.15,216.37Z"></path><path d="M216.76,216.78s0,0,0,0a1.85,1.85,0,0,1-.08.46,3.73,3.73,0,0,1-.14.44s.06.1.08,0a1.46,1.46,0,0,0,.15-.46A1.93,1.93,0,0,0,216.76,216.78Z"></path><path d="M176.72,233.59a1.73,1.73,0,0,0-.05-.45h0c0,.15,0,.3,0,.44s0,.15,0,.23a.89.89,0,0,0,0,.23,0,0,0,0,0,.08,0,.91.91,0,0,0,0-.23Z"></path><path d="M176.33,234a0,0,0,1,0,0,0,1.83,1.83,0,0,1-.07.46,3.73,3.73,0,0,1-.14.44s.06.1.08,0a1.77,1.77,0,0,0,.15-.46A2.57,2.57,0,0,0,176.33,234Z"></path><path d="M180.64,220.81a2.64,2.64,0,0,0-.25.47,1.82,1.82,0,0,0-.07.25.82.82,0,0,0,0,.27,0,0,0,0,0,0,0,2.44,2.44,0,0,0,.06-.26c0-.08,0-.16.05-.24a1.41,1.41,0,0,1,.16-.49S180.65,220.8,180.64,220.81Z"></path><path d="M180.8,222.1V222a.49.49,0,0,1,0-.12s0,0,0,0,0,.07,0,.11l0,.1a1.23,1.23,0,0,0,0,.19,1.41,1.41,0,0,0,0,.2,1.55,1.55,0,0,0,0,.21,0,0,0,0,0,0,0,.67.67,0,0,0,0-.2v-.38Z"></path><path d="M180.89,213a1.13,1.13,0,0,0-.29.43,1.22,1.22,0,0,0-.06.26.49.49,0,0,0,0,.24s0,0,0,0a.23.23,0,0,0,0-.11s0-.08,0-.12a.92.92,0,0,1,.09-.23,1.38,1.38,0,0,1,.28-.4S180.94,212.92,180.89,213Z"></path><path d="M179.5,227.78a1.13,1.13,0,0,0-.29.43,1.22,1.22,0,0,0-.06.26.49.49,0,0,0,0,.24h0a.22.22,0,0,0,0-.11s0-.08,0-.12a.92.92,0,0,1,.09-.23,1.21,1.21,0,0,1,.28-.4S179.55,227.74,179.5,227.78Z"></path><path d="M197.55,221.92c-.11,0-.22-.12-.33-.18l-.15-.11-.06-.07,0,0,0,0,0,0s0,0,0,0h0s0,0,0,0,0,0,0,0a.41.41,0,0,0,.05.09c0,.06.09.11.13.16a.6.6,0,0,0,.4.18C197.58,222,197.59,222,197.55,221.92Z"></path><path d="M207.08,222.87a.41.41,0,0,0,0-.11.31.31,0,0,0,0-.1v-.1a.11.11,0,0,0,0-.05h0a0,0,0,0,0,0,0h0v0s0,0,0,.07a.28.28,0,0,1,0,.09.58.58,0,0,1,0,.18,2.11,2.11,0,0,1-.16.34s0,.08.06,0A.82.82,0,0,0,207.08,222.87Z"></path><path d="M206.93,224.05a1,1,0,0,0,.16-.36.58.58,0,0,0,0-.19s0-.06,0-.09,0-.07,0-.11,0,0,0,0,0,.06,0,.1a.29.29,0,0,1,0,.09,1.21,1.21,0,0,1-.05.18,1.68,1.68,0,0,1-.16.33,0,0,0,0,0,0,.06A0,0,0,0,0,206.93,224.05Z"></path><path d="M215.61,207.15a1.74,1.74,0,0,0-.11.18,1.74,1.74,0,0,1-.1.19,1,1,0,0,0-.11.17,1.88,1.88,0,0,1-.12.18.06.06,0,0,0,.09.08l.15-.15a.82.82,0,0,0,.12-.2,1.8,1.8,0,0,0,.08-.21.41.41,0,0,0,0-.22S215.62,207.13,215.61,207.15Z"></path><path d="M215.69,208.06h0s0,0-.05,0l-.07.11a1.13,1.13,0,0,0-.08.22.83.83,0,0,0,0,.47,0,0,0,0,0,.09,0c0-.14,0-.29,0-.43a1.6,1.6,0,0,1,.05-.21l0-.11A.11.11,0,0,0,215.69,208.06Z"></path><path d="M204.29,231.36a.64.64,0,0,0-.1.18l-.11.18a1.74,1.74,0,0,0-.11.18,1.88,1.88,0,0,1-.12.18.06.06,0,0,0,.09.08l.15-.16a.82.82,0,0,0,.12-.2,1.31,1.31,0,0,0,.08-.21.38.38,0,0,0,0-.21S204.3,231.34,204.29,231.36Z"></path><path d="M204.37,232.27h0a.08.08,0,0,0-.05.05l-.06.11a.78.78,0,0,0-.09.21.84.84,0,0,0,0,.47s.09.05.09,0,0-.29,0-.44,0-.13.05-.2l0-.12S204.39,232.3,204.37,232.27Z"></path><path d="M204.41,210.33a1.91,1.91,0,0,0-.59-.7s0,0,0,0,.19.22.28.34a1.79,1.79,0,0,1,.2.39C204.33,210.46,204.45,210.41,204.41,210.33Z"></path><path d="M204.2,211a1.19,1.19,0,0,0-.08-.2,1.74,1.74,0,0,0-.11-.18l-.06-.09-.08-.07s0,0,0,0a.73.73,0,0,1,.05.09l0,.08c0,.06.05.13.08.19a1.33,1.33,0,0,1,.05.19l.06.19c0,.05.1,0,.09,0A.71.71,0,0,0,204.2,211Z"></path><path d="M203.28,210.89a1.83,1.83,0,0,0-.11-.26.15.15,0,0,0,0-.07s0,0-.05,0,0,.06,0,0h0s0,0,0,.08,0,.11,0,.16a3,3,0,0,0,.12.32,0,0,0,0,0,.08,0A2.76,2.76,0,0,0,203.28,210.89Z"></path><path d="M206.11,215c-.06-.13-.12-.26-.17-.39l-.09-.19a1.17,1.17,0,0,1,0-.2s0,0,0,0,0,.29.09.43a1.69,1.69,0,0,0,.19.38S206.13,215,206.11,215Z"></path></g><path d="M176.25,240.24c-.06-.12-.12-.25-.17-.38s-.06-.13-.08-.19a.83.83,0,0,1-.06-.21s0,0,0,0a2,2,0,0,0,.09.42,1.38,1.38,0,0,0,.18.39A0,0,0,0,0,176.25,240.24Z"></path></g><g id="freepik--Sun--inject-250"><circle cx="250" cy="66.24" r="28.13" style="fill:#FFC100;opacity:0.4"></circle><circle cx="250" cy="66.24" r="23.3" style="fill:#FFC100"></circle></g><g id="freepik--Character--inject-250"><path d="M318.43,139.78c-11.06-7.06-37.84-12.78-57,13.74-27.27,37.66,1.67,120,8.91,132,0,0,61.7,9,107.41-30.36,0,0-39-51.86-40-82.08C337.05,155.54,326.53,144.94,318.43,139.78Z" style="fill:#263238"></path><path d="M349,204c.27.43.52.88.8,1.31a106.33,106.33,0,0,0,11.95,15.4,64.82,64.82,0,0,0,14.24,12c.15.09.31-.12.17-.21-5.45-3.41-9.7-8.27-13.69-13.19a157,157,0,0,1-10.81-15.06,147.72,147.72,0,0,1-16-34c-.07-.23-.49-.12-.43.12q.6,2.56,1.32,5.08a.21.21,0,0,0-.24.28c3.32,11.24,6.93,22.21,12.53,32.56a126,126,0,0,0,20.73,27.68A160.45,160.45,0,0,0,384,249.08c.08.06.17-.06.1-.13C369.63,236.28,358.19,220.69,349,204Z" style="fill:#263238"></path><path d="M271,146.65c-26.11,23.6-28,60.69-21.87,92.16a150.38,150.38,0,0,0,8.18,28.39c.06.16.32.07.27-.1A176.35,176.35,0,0,1,249,216.84c-.31-16,.94-32.86,7.3-47.94a61.27,61.27,0,0,1,15-21.84C271.5,146.84,271.21,146.43,271,146.65Z" style="fill:#263238"></path><path d="M167.2,118.55s11.14,5,12.42-.25-1.93-20.24-1.93-20.24,8,24.42,12.64,23.25,10.92-6.12,10.92-6.12-7.83,8.1-3.75,11.65a29.72,29.72,0,0,0,8.61,5.14s-10.23-1.5-11.81,1.84S196,149.4,196,149.4s-7.49-13.75-9.35-13.61-4.76,6.72-4.76,6.72.92-7.3-2.15-8.85-9.83-.57-9.83-.57,7.27-3.35,6-6.52S167.2,118.55,167.2,118.55Z" style="fill:#fff"></path><path d="M167.2,118.55c3,1.14,9.58,3.78,11.93.59a9.22,9.22,0,0,0,.6-4.12,62.22,62.22,0,0,0-.81-8.49c-.42-2.81-.93-5.62-1.53-8.41L178,98q1.61,4.71,3.49,9.31c2,4.43,3.74,9.29,7.06,12.86.58.51,1.22.94,1.82.72,3.91-1.19,7.36-3.6,10.62-6l.61.67c-2.09,2.42-6.68,7.75-3.9,10.84a28.66,28.66,0,0,0,8.59,5.17l3.92,1.5-4.15-.54c-3.33-.34-7.06-.78-10.19.53a2.68,2.68,0,0,0-1.47,2.5c-.21,5.73,1.54,11.6,2.91,17.15-2.56-4.62-5.14-9.41-8.14-13.73a10.14,10.14,0,0,0-2.42-2.73s0,0,0,0l-.11,0a3.14,3.14,0,0,0-1.28,1.09,38.61,38.61,0,0,0-4,7.22c.3-3,1.28-8.9-1.88-10.68a12.43,12.43,0,0,0-4.66-.8,40.82,40.82,0,0,0-6.15.41c2.57-1.28,9.35-4.21,6.56-7.87-2.12-2.85-5.1-5-8-7Zm0,0c2.94,2,6,4.07,8.16,6.92,1.46,1.68.6,3.53-.86,4.83a18.82,18.82,0,0,1-4.5,3l-.12-.41c3.24-.37,6.68-.75,9.79.45,3.1,1.68,2.72,6.22,2.56,9.23l-.66-.18a28.89,28.89,0,0,1,3.12-5.54c.75-1,1.95-2.09,3.08-.87,3.6,3.9,5.95,8.69,8.62,13.23l-.82.33c-1.12-4.65-2.32-9.26-2.12-14.11l.14-.94a3.26,3.26,0,0,1,1.82-2.32c3.43-1.46,7.19-1,10.77-.66l-.24,1A29.22,29.22,0,0,1,197,127c-2.1-2-.92-5.24.32-7.38a26.61,26.61,0,0,1,3.6-4.78l.62.68c-3.37,2.48-6.9,4.93-11,6.14a2.11,2.11,0,0,1-1.5-.14c-2-1-3-3.16-4.11-4.92a118.34,118.34,0,0,1-7.57-18.48L178,98a91.24,91.24,0,0,1,2.09,17,9.34,9.34,0,0,1-.73,4.25c-2.54,3.31-9,.52-12.15-.73Z" style="fill:#263238"></path><path d="M185.76,132.26l-30,76.72c-.66,2.41-2.73,3.28-4.6,1.94l-33.56-24a6.69,6.69,0,0,1-2.19-6.78l30-76.72c.67-2.41,2.73-3.27,4.61-1.94l33.55,24A6.65,6.65,0,0,1,185.76,132.26Z" style="fill:#37474f"></path><path d="M181.8,129.38l-30,76.73c-.67,2.4-2.74,3.27-4.61,1.93l-33.56-24a6.66,6.66,0,0,1-2.18-6.78l30-76.72c.67-2.41,2.73-3.27,4.61-1.93l33.55,23.95A6.65,6.65,0,0,1,181.8,129.38Z" style="fill:#455a64"></path><path d="M170.48,125.79a3.5,3.5,0,1,0,4.87-.93A3.49,3.49,0,0,0,170.48,125.79Z" style="fill:#263238"></path><path d="M297.53,274.26c-46.29,29.5-125.26,51.2-145.37,43.57-9.64-3.66-80.88-79.28-74.75-110.07,2-10,64.1-12.2,69.2-2.53,9.14,17.34,40.8,46,42.9,48.19,2.3,2.36,58-3.56,97.4-6.87C333.45,242.64,316,262.5,297.53,274.26Z" style="fill:#d3766a"></path><path d="M94,155.93c11.81-17.47,17.52-20.14,19.65-40.18,1.4-13.15,10.39-17.9,15.47-5.12,8.3,20.91-2.2,46.65-8.4,54.53Z" style="fill:#d3766a"></path><path d="M77.3,214.45s-5.87-20.33,11.33-49.85c7.85-13.5,26.91-41.83,73.49-43.58,11-.41,27.08,6.83,9.28,14.06-12.64,5.14-22.21,4.58-29,8.9,0,0,19.31,11.64,19.29,22.72,0,5-.34,18.48-2.1,29a43,43,0,0,1-5.46.09s-.34,10.37-12,21.08Z" style="fill:#d3766a"></path><path d="M97.81,152.62c7.66-2.87,24-8.67,39-8.76,16.69-.11,48.87,4.19,48.82,16.52,0,9-12.47,8.47-12.47,8.47s12.93,4.58,11.11,12.73C182.65,189,173.06,188,173.06,188s7.37,4.13,4.39,11c-3.58,8.24-18.42-1.76-29.26,3.45C145.76,203.6,97.81,152.62,97.81,152.62Z" style="fill:#d3766a"></path><path d="M134,161.51c7.65-1.51,25.91-.49,39,7,.3.17.33.48,0,.38a163.6,163.6,0,0,0-39-7.26C133.93,161.67,133.93,161.53,134,161.51Z" style="fill:#263238"></path><path d="M134.61,178.36c6.74-.63,25.51,1.27,38.53,9.35.29.18.3.5,0,.39a175,175,0,0,0-38.54-9.58C134.51,178.51,134.53,178.37,134.61,178.36Z" style="fill:#263238"></path><path d="M211.49,315.18l-16.3-63.34s72-9,104.67-7.63c27.42,1.11,28.83,17-2.2,33.55C268.3,293.39,211.49,315.18,211.49,315.18Z" style="fill:#FFC100"></path><g style="opacity:0.1"><path d="M316.51,248.24c-.53,10.65-7,22.81-18.45,24.93-7.36,1.37-18.82-2-19.67-10-1-9.55,9.14-9.52,13.62-17.3q.51-.88,1-1.8c2.42,0,4.71,0,6.83.13C307.45,244.52,313.05,246,316.51,248.24Z"></path><path d="M282,285.55c-5.34,2.5-11,5.05-16.68,7.54a38.58,38.58,0,0,0-7.38-1.46c-6.58-.19-13.41-.15-17.54-7.05-4.93-8.24,4.3-12.47,5.11-21.42.56-6.2.89-13.16,4.58-16.92,4.17-.35,8.38-.66,12.54-1,6.54,5.26,6,20.55,8.39,26.38S280.44,280.81,282,285.55Z"></path><path d="M233.87,306.3c-13.05,5.3-22.38,8.88-22.38,8.88l-8.33-32.36c5.17,1.55,7.63,8.19,14.21,10.62C224.7,296.15,234.19,299,233.87,306.3Z"></path><path d="M236.87,251.73c.18-1.37.37-2.85.46-4.38-.68.05-1.34.12-2,.18-.09,1.33-.27,2.65-.43,3.94-.34,2.54-.62,4.74-.14,6.51.72,2.66-.47,8.94-4.55,13.32a13.28,13.28,0,0,1-12.94,4c-8.84-1.72-10.95-6.23-13.17-11-1.29-2.76-2.61-5.61-5.3-7.75-1-.76-2-1.66-3.08-2.65l.89,3.44c.32.27.63.53.94.77,2.32,1.85,3.5,4.37,4.74,7,2.23,4.78,4.75,10.19,14.59,12.12a18.78,18.78,0,0,0,3.61.36,14.94,14.94,0,0,0,11.19-4.94c4.23-4.56,6-11.55,5-15.21C236.3,256.07,236.58,254,236.87,251.73Z"></path></g><path d="M210.49,257.08a105.45,105.45,0,0,1,3.9,11.95c1.25,4.15,2.35,8.32,3.46,12.48s4.93,20.93,5.87,25.12c0,.19-.3.24-.35.05-1.27-4.14-6.28-20.57-7.35-24.65s-2.19-8.18-3.13-12.29a106.49,106.49,0,0,1-2.6-12.61C210.28,257,210.44,257,210.49,257.08Z" style="fill:#263238"></path><path d="M297.66,277.76c-4.65,2.48-10,5.11-15.69,7.79-5.34,2.5-11,5.05-16.68,7.54-11,4.83-22.15,9.45-31.42,13.21L231,307.47l67.78-63.3,1.1,0c7.59.31,13.19,1.75,16.65,4C325.58,254.18,320.1,265.81,297.66,277.76Z" style="opacity:0.1"></path><path d="M239.61,473l168.27-.17s-21.36-154.41-68.24-223.15c-12.89-18.88-40.39-10-49.43.11C267.23,275.55,239.07,472.37,239.61,473Z" style="fill:#ebebeb"></path><path d="M290.21,249.74s-10.48,13-19.92,40.88C264.8,306.83,234.36,473,234.36,473h13.39s20-135.39,28.52-171.92C279.28,288.09,290.21,249.74,290.21,249.74Z" style="fill:#FFC100"></path><path d="M280.85,283.36c-1,3.74-2,7.33-2.79,10.48h0c-2.44,1.06-5.57.81-8.75.18.38-1.47.71-2.62,1-3.41,1.64-4.82,3.3-9.2,4.94-13.14C277.27,279.52,279.47,281.36,280.85,283.36ZM259,399.87a9.92,9.92,0,0,0-.85-3.78c-2.05-4.11.55-13.83-5.74-19.27-2.67,14-5.34,28.1-7.77,41.05,7.18-.46,11.21-4.95,13.08-9.87A20.06,20.06,0,0,0,259,399.87Zm6.58-89.25c-2.66,12.46-6,29.29-9.54,47.4a29.88,29.88,0,0,0,10.7-5.71c2.55-15.09,5-28.91,7.09-39.5C271.46,312.4,268.6,311.25,265.54,310.62Zm-11,117.54c-.1.67-.2,1.34-.31,2l-1-.27a13.36,13.36,0,0,0-11.22,1.55c.16-.85.32-1.72.49-2.59a15.55,15.55,0,0,1,11.25-.9Zm-14.82,41.66a22.74,22.74,0,0,0,8.06,2.92l0,.21h-6.27a28.43,28.43,0,0,1-2.75-1.39,17.45,17.45,0,0,1-3.62-2.68c.13-.73.29-1.56.45-2.48A14.45,14.45,0,0,0,239.72,469.82Z" style="opacity:0.1"></path><path d="M325.16,239.18S307,337.61,306.43,352.09s-1.62,120.66-1.62,120.66H407.88s-17.54-167.87-62.88-219C331.45,238.5,325.16,239.18,325.16,239.18Z" style="fill:#FFC100"></path><path d="M345.06,428.1c1,8.3,2.75,17.86-5.37,21.11-13.65,5.46-16.77-17.38-21.37-24-3.25-4.7-9.84-6.59-12.88-10.14,0-3,.07-6,.11-9,4.37-5.1,15.8-2.13,21.33-3.16,6.47-1.21,13.14-2.7,18.64,3.18C352.08,413.1,344,419.19,345.06,428.1Zm61.46,33.15c-7.81,2-28.71-1.44-29.12,11.5h30.48S407.44,468.54,406.52,461.25ZM370,298.79a22.41,22.41,0,0,0-.2,12.22,20,20,0,0,0,8.27,10.93C375.54,313.93,372.86,306.16,370,298.79Zm-30.79-12.5c-7.62-2.06-9.84-10.9-20.67-10.44-2.3,12.95-4.84,27.51-7,40.52,2,2.07,4.85,3.54,9.2,3.73,10.17.44,14.71-4.2,19.91-8.19s16.4-1.43,16.58-10S347.71,288.58,339.2,286.29Zm47.61,67c-.26.23-.54.45-.83.66-5,3.51-13.44,2-20.23.76a42.52,42.52,0,0,0-8.33-1c-3,.18-5.82,1.65-8.57,3.07s-5.4,2.78-8.08,2.78a7.15,7.15,0,0,1-5-2c-5.83-5.32-1.09-12.51,2.71-18.3a33.73,33.73,0,0,0,3.33-5.74l.23-.59c2.22-5.91,4.73-12.6,12.89-14.32a11.79,11.79,0,0,1,2.47-.27c4.57,0,7.15,3.06,9.64,6,2,2.33,4,4.73,7.08,6.13l1.28.57c2.08.92,4.24,1.88,6.24,3,.27.92.53,1.84.79,2.77a61,61,0,0,0-7.84-3.93l-1.29-.57c-3.52-1.58-5.79-4.28-7.79-6.66-2.88-3.43-5.16-6.14-10.17-5.09-7.08,1.49-9.2,7.11-11.43,13.06l-.23.6a33.93,33.93,0,0,1-3.53,6.13c-4.45,6.77-7.27,11.86-3,15.73,3,2.75,6.07,1.39,10.79-1.05,2.94-1.52,6-3.09,9.38-3.29a42,42,0,0,1,8.79,1.05c6.43,1.15,14.43,2.59,18.73-.44a6.52,6.52,0,0,0,1.4-1.32C386.42,351.75,386.62,352.52,386.81,353.29Zm.44,45.45c7.1-3.77,5.95-15.65,1.93-22-10.46-16.47-42-9.5-42,5.09,0,8.75,10.7,9.52,19,10.7C375,393.82,378.77,403.25,387.25,398.74ZM363.86,284.32a10.82,10.82,0,0,1-3,.44c-4.17,0-6.8-2.73-9.35-5.38-2.11-2.19-4.3-4.45-7.49-5.63l-1.71-.62c-7.63-2.77-17.13-6.21-15.2-15,1.1-5,5.61-8.77,12.17-10.31.56.53,1.14,1.09,1.73,1.69-5.46,1-10.79,3.77-11.95,9-1.44,6.56,5.16,9.51,13.93,12.69l1.73.63c3.62,1.33,6.06,3.87,8.23,6.11,3,3.13,5.4,5.61,10,4.49ZM355,472.75h-2.14a9.47,9.47,0,0,0,.73-6.09c-1.43-6.56-8.66-6.49-18-5.71l-1.83.15c-3.86.29-7.13-1-10-2.13a18,18,0,0,0-6.26-1.67,7.6,7.6,0,0,0-5.1,2.08,8.42,8.42,0,0,0-2.82,6.37,18,18,0,0,0,1.31,7h-2.13a19.35,19.35,0,0,1-1.18-7.08,10.46,10.46,0,0,1,3.52-7.81,9.53,9.53,0,0,1,6.39-2.55,19.69,19.69,0,0,1,7,1.8c2.83,1.11,5.77,2.25,9.15,2l1.82-.15c8.09-.67,18.15-1.51,20.07,7.28A11.42,11.42,0,0,1,355,472.75ZM327.73,356c-1.92-6.26,4.4-15.86-3.54-19-6-2.41-12,1.28-16.82,6.33-.54,4-.87,7-.94,8.8-.17,4.45-.39,17.54-.62,33.55,5.85-.8,17.41,4.12,22.61-8.14C332.4,368.13,329.64,362.26,327.73,356Zm77,91.77c-2.28,1.24-5.27,1.28-8.05,1.32-2.61,0-5.31.08-7.26,1-.65.32-1.29.65-1.92,1-3.93,2-7.95,4.07-13.53,4.07a26.74,26.74,0,0,1-6.35-.81c-10.52-2.57-11.21-10.86-11.72-16.9-.19-2.25-.36-4.38-1-5.64-1.76-3.37-1.5-10.57,1.67-15.93,2-3.38,6-7.45,13.5-7.6,10-.19,13.63,4.56,16.83,8.76,1.77,2.34,3.45,4.55,6.11,5.87a44.53,44.53,0,0,1,8.87,5.66h0c.18,1.08.34,2.14.51,3.19a38.44,38.44,0,0,0-10.26-7.07c-3.08-1.52-5-4-6.83-6.45-3.11-4.1-6-8-14.6-8h-.59a13.32,13.32,0,0,0-11.82,6.62c-3.05,5.15-2.89,11.54-1.62,14,.85,1.62,1,3.83,1.24,6.39.51,6,1.08,12.9,10.2,15.12a24.85,24.85,0,0,0,5.89.76c5.09,0,8.76-1.88,12.6-3.85l1.95-1c2.36-1.16,5.29-1.21,8.12-1.25,3.49-.05,6.11-.21,7.77-1.5C404.52,446.32,404.62,447.05,404.72,447.76Z" style="opacity:0.1"></path><path d="M337.48,280.08c11.95,27.28,52.56,78.82,52.65,85.25,0,1-9.86,10.18-9.8,12.68.2,10.2,21.8,90.87,31,84.62,12.17-8.24,58.5-65.07,53.5-93.56S376.48,272.7,364.24,262.88C341.26,244.46,317,233.22,337.48,280.08Z" style="fill:#d3766a"></path><path d="M328.62,403.74c.79,9.2,11.18,3,11.18,3s-12.8,12.52-8.31,21.69c4.34,8.82,16.62.88,17.51.33-.67.67-12.13,12.48-6.67,21.23,5.67,9.08,16.63-1,17.34-1.65-.44.83-6,11.9-.35,17.61,9.72,9.79,28.38-20.54,39.2-23.3,0,0,13.61,11.54,13.91,12,0,0-4.06-6.74-2.57-13,1.84-7.78,4.12-14.44,2.41-19a10.1,10.1,0,0,0-9.93-6.85s5.72-7.95,1.64-15c-2.1-3.59-9.73-3.43-9.73-3.43s4.32-6.55.3-12.57c-3.19-4.81-10.34-3.9-10.34-3.9s1.22-8.21-3.64-12.07C370.8,361.07,326.94,384.05,328.62,403.74Z" style="fill:#d3766a"></path><path d="M383.05,380.92a.13.13,0,0,0-.07-.25c-16.27,4-32.91,13.45-43.78,26.34-.36.42.17,1.19.66.8C353.6,396.67,366.69,387.88,383.05,380.92Z" style="fill:#263238"></path><path d="M394.42,397.22c.18-.08.06-.37-.14-.32-16.74,4.25-35.19,15.37-46,31.7-.37.56-.14,1.43.33.82C356.63,419.11,379.66,403.4,394.42,397.22Z" style="fill:#263238"></path><path d="M359.31,449.74C370.25,434.48,385,424.26,401.63,416c.22-.11,0-.4-.16-.36-9.25,1.85-19.31,8.25-26.71,13.9a49.55,49.55,0,0,0-16,19.87C358.64,449.67,359.07,450.06,359.31,449.74Z" style="fill:#263238"></path><path d="M384,380.88a.84.84,0,0,0,.07.16l.08.06h0s.07,0,.13,0a10.59,10.59,0,0,1,10.21,4.41,8.87,8.87,0,0,1,1.62,4.77c0,3.53-2,7.09-1.86,7.12,4.28.27,8.61,2.58,10.41,6.45a9.48,9.48,0,0,1,.27,5.61,28.18,28.18,0,0,1-2.63,6.28c-.16.23,0,.44.18.42a9.54,9.54,0,0,1,8.62,5.18c1.56,3.21,1.49,6.87.79,10.3-.83,3.9-2.43,7.62-2.66,11.64a19.44,19.44,0,0,0,.33,4.93,15.5,15.5,0,0,0,1.69,4.41c.17.3.48.51.28.11a11.94,11.94,0,0,1-1.49-6.68,26.74,26.74,0,0,1,1.53-6.21c1.28-3.89,3-7.74,3.4-11.88.31-3.61-.46-7.16-3.21-9.66a10.38,10.38,0,0,0-9-2.47,28.6,28.6,0,0,0,4-6.48,8.92,8.92,0,0,0,.12-6.41c-1.95-4.57-6.95-6.38-11.63-6.25.85-1.36,2.8-4,3-6.69a9,9,0,0,0-1.78-6c-2.9-3.74-7.6-4.24-12-3.52a.18.18,0,0,0,0-.13c1.47-3,1.11-7.47-2-9.26C385.2,375.3,384,380.88,384,380.88Z" style="fill:#263238"></path><path d="M429.71,315.21l-50,42.13s-39.27-61-52.22-91c-10.88-25.19,2.87-33.36,31.19-12.55C385.46,273.45,429.71,315.21,429.71,315.21Z" style="fill:#FFC100"></path><g style="opacity:0.1"><path d="M408.52,295.73c.74.83,1.49,1.72,2.27,2.64,3.79,4.47,8.37,9.87,13.39,11.67C420.39,306.53,414.91,301.49,408.52,295.73Zm-11.66-8.48c-5.2-1.13-8.41-2-9-6.06a6.15,6.15,0,0,1,.38-3.39l-1.57-1.35a7.93,7.93,0,0,0-.79,5c.81,5.63,5.76,6.7,10.55,7.73a26.57,26.57,0,0,1,7.5,2.41l-4.12-3.68C398.84,287.68,397.84,287.46,396.86,287.25Z"></path><path d="M377.75,290.43c-7.87,1.65-10.06,13.39-8,20.58,5.48,18.72,37.71,20.79,41.8,6.78,2.46-8.39-7.63-12.11-15.26-15.54C388.14,298.57,387.15,288.46,377.75,290.43Z"></path><path d="M357.22,301.94c-.1,4.6-3.39,6-7.23,6.91-4.61-7.91-9.16-16-13.16-23.49a11.81,11.81,0,0,0,2.37.93C347.71,288.58,357.41,293.39,357.22,301.94Z"></path><path d="M375.42,331l-1.28-.57c-3.1-1.4-5.12-3.8-7.08-6.13-2.49-3-5.07-6-9.64-6a11.08,11.08,0,0,0-1.77.14c.37.63.74,1.26,1.12,1.88,4.06-.3,6.17,2.21,8.76,5.3,2,2.38,4.27,5.08,7.79,6.66l1.29.57c7.19,3.2,14.63,6.51,13.4,13.9a8,8,0,0,1-3.18,5.57,12.82,12.82,0,0,1-7.21,1.81l1.25,2a19.67,19.67,0,0,0,2.71-.34l7.9-6.65a13.56,13.56,0,0,0,.5-2C391.46,338.16,382.94,334.36,375.42,331Z"></path><path d="M371.83,264c-1-.78-1.93-1.56-2.88-2.31.13.3.25.61.37.92,1.72,4.67,1.45,11-.65,15.15a9.92,9.92,0,0,1-2.24,3,7.51,7.51,0,0,1-3,1.63c-4.93,1.39-7.38-1.15-10.49-4.38-2.17-2.24-4.61-4.78-8.23-6.11l-1.73-.63c-8.77-3.18-15.37-6.13-13.93-12.69,1.38-6.29,8.69-9,15.08-9.44.66,0,1.34-.06,2-.06a31.89,31.89,0,0,1,6.74.73q-2.3-1.47-4.42-2.64a30.49,30.49,0,0,0-4.48,0c-9.07.62-15.54,4.84-16.89,11-1.93,8.78,7.57,12.22,15.2,15l1.71.62c3.19,1.18,5.38,3.44,7.49,5.63,2.55,2.65,5.18,5.38,9.35,5.38a11.1,11.1,0,0,0,3.12-.47,10.44,10.44,0,0,0,6.46-5.63A22.42,22.42,0,0,0,371.83,264Z"></path></g><path d="M377.77,341.28a107.92,107.92,0,0,1,9.09-8.69c3.19-2.92,6.47-5.72,9.74-8.53s16.74-13.5,20.1-16.17c.15-.12.34.17.2.3-3.19,2.93-15.82,14.56-19,17.3s-6.42,5.51-9.72,8.14-6.63,5.6-10.23,7.81C377.83,341.49,377.69,341.37,377.77,341.28Z" style="fill:#263238"></path><path d="M337.2,286.26c12.69,20.93,30.72,50,42.67,71l-.33-.05c1.16-.91,2.35-1.79,3.53-2.68-1.13,1.07-2.27,2.14-3.43,3.19-15.66-22.84-30.39-46.45-42.44-71.42Z" style="fill:#263238"></path><path d="M337.09,292.35c3.31,3.14,6.3,6.35,9.3,9.78a26.6,26.6,0,0,1-9.3-9.78Z" style="fill:#263238"></path><path d="M299.08,275.38c10.54-.81,22.58-21.12,25.36-35.36.18-1-13.88-33.1-16-39.75-.43-1.37-38.56,23.47-38.56,23.47s8.56,12.64,12.19,24.27C282.36,249,288.9,276.16,299.08,275.38Z" style="fill:#d3766a"></path><path d="M269.88,223.74s8.56,12.64,12.2,24.26c.06.24,27,.93,33.07-30.89-3-7.29-5.85-14.14-6.71-16.84C308,198.9,269.88,223.74,269.88,223.74Z" style="fill:#263238"></path><path d="M329.33,166.12c1.92,16.16-14.14,58.93-26.8,66.83-18.37,11.46-44.46,8.17-53.19-13-8.46-20.52,13.44-75.89,27.22-82.66C296.86,127.31,326.5,142.26,329.33,166.12Z" style="fill:#d3766a"></path><path d="M249.33,220c8.73,21.15,34.82,24.45,53.19,13,5.13-3.2,10.82-12.14,15.66-22.71L311.87,191s-8.06,11.81-14.19,15.31c-9.18,5.24-19.28.74-28.4-8.79l-4.75-.49s-11.76,8.38-14.77-6.94C247.1,201.88,246.43,213,249.33,220Z" style="fill:#263238;opacity:0.30000000000000004"></path><path d="M283.82,186.07c.06-.11.17.22.12.33-1.15,2.86-2,6.32.26,8.24.07.06,0,.2-.09.15C281.09,193.17,282.26,188.58,283.82,186.07Z" style="fill:#263238"></path><path d="M287.51,184c4.77,1.37,1.69,10.81-2.73,9.55S283.51,182.86,287.51,184Z" style="fill:#263238"></path><path d="M267.31,181c0-.12-.28.07-.31.19-.86,2.95-2.35,6.19-5.31,6.3-.09,0-.13.16,0,.17C265,188.29,267,184,267.31,181Z" style="fill:#263238"></path><path d="M265.69,177.12c-4.59-1.89-8,7.43-3.78,9.18S269.54,178.71,265.69,177.12Z" style="fill:#263238"></path><path d="M292.62,181c-1.15-.8-2.07-1.72-3.13-2.62s-2.23-1.71-2.67-3.29a2.1,2.1,0,0,1,1.21-2.26c1.86-.71,3.62.18,5.1,1.35a7.63,7.63,0,0,1,3,4.65C296.52,180.75,294.13,182,292.62,181Z" style="fill:#263238"></path><path d="M263.56,171.47a39.46,39.46,0,0,0,4.07-.18c1.56-.09,2.82,0,4.12-1a2.09,2.09,0,0,0,.41-2.53c-1.05-1.69-3-2.06-4.87-2a7.61,7.61,0,0,0-5.18,1.9C260.6,168.91,261.72,171.39,263.56,171.47Z" style="fill:#263238"></path><path d="M279.37,214.12c-.92.46-1.93,1.17-3,.91a8,8,0,0,1-2.91-1.76.11.11,0,0,0-.17.11,4.13,4.13,0,0,0,3.19,2.8,3.29,3.29,0,0,0,3.15-1.84C279.71,214.19,279.51,214.05,279.37,214.12Z" style="fill:#263238"></path><path d="M279.15,204.36a10.46,10.46,0,0,1-8.09,2.26,13,13,0,0,1-3.64-1,4.42,4.42,0,0,1-.66-.3l-.61-.31a.77.77,0,0,1-.37-.85v0a1,1,0,0,1,.12-.29v0l.09-.26c.67-2.27,2-5.62,2-5.62-.95.14-5.77.66-5.31-.5,3.75-9.55,7.93-20.17,13.69-28.89a.29.29,0,0,1,.51.25c-3.25,9.33-8.12,18-11.53,27.33,1.51-.07,4-.3,5.17.11.29.19-2.7,6.44-2.92,7.48a.5.5,0,0,0,0,.11c3.62,1.72,6.85,1.51,11.35.16C279.23,203.91,279.4,204.18,279.15,204.36Z" style="fill:#263238"></path><path d="M269.59,206.06a11.55,11.55,0,0,0,3.86,4.41,5.18,5.18,0,0,0,3.07.8c2.36-.15,2.82-2.2,2.75-4.05a12.37,12.37,0,0,0-.48-2.89A15,15,0,0,1,269.59,206.06Z" style="fill:#263238"></path><path d="M273.45,210.47a5.18,5.18,0,0,0,3.07.8c2.36-.15,2.82-2.2,2.75-4.05C276.81,207,274.11,208.17,273.45,210.47Z" style="fill:#ff98b9"></path><path d="M312.64,203c-1.89-2.63-1.76-17.22-1.76-17.22s-24.09-16.16-22-40.7c0,0-15.73,11.31-27.47,12,0,0,5.74-24.57,29.13-23,0,0,24.09-3.73,38.35,21.47S319.32,205,319.32,205Z" style="fill:#263238"></path><path d="M290.53,140.68c-1.92,3.6-2.1,8.13-1.85,12.15a42.91,42.91,0,0,0,2.63,12,38.18,38.18,0,0,0,5.91,11c3,3.7,7,6.5,11,9.12.13.09,0,.31-.14.23-4.22-2.62-8.43-5.31-11.83-9a39,39,0,0,1-6.78-11.13,31.26,31.26,0,0,1-2.83-12.76c.05-4.34,1.55-8,3.47-11.86C290.23,140.19,290.68,140.4,290.53,140.68Z" style="fill:#263238"></path><path d="M311,199s12.83-12.25,18.58-7.4-5.89,24-14.05,25.31a7.87,7.87,0,0,1-9.51-6.23Z" style="fill:#d3766a"></path><path d="M326.14,197a.11.11,0,0,1,0,.21c-5.75,1.09-9.55,5.46-12.54,10.18,2-1.65,4.35-2.29,6.61.12.12.13,0,.32-.2.26a4.84,4.84,0,0,0-5.56.6,23.8,23.8,0,0,0-3.35,3.73c-.34.42-1.15,0-.86-.52l.07-.11C311.54,204.7,318.72,196.26,326.14,197Z" style="fill:#263238"></path><path d="M344.14,173.78l1.11-29.13S326.32,128.73,321.54,126s-25.48-8.53-25.48-8.53L277,135.1Z" style="fill:#FFC100"></path><path d="M344.14,173.78l1.11-29.13S326.32,128.73,321.54,126s-25.48-8.53-25.48-8.53L277,135.1Z" style="opacity:0.1"></path><path d="M253.49,139.89s46.95,14.48,95.18,57.1l-4.53-23.21S312.74,142.5,277,135.1Z" style="fill:#FFC100"></path><path d="M253.49,139.89s46.95,14.48,95.18,57.1l-4.53-23.21S312.74,142.5,277,135.1Z" style="opacity:0.2"></path><g style="opacity:0.1"><path d="M274,136.49a212.71,212.71,0,0,1,36.71,16A223,223,0,0,1,343,176.25c-2.63-2.06-5.27-4.1-8-6.07a283.54,283.54,0,0,0-24.83-16.78c-11.55-6.63-23.87-11.91-36.21-16.91Z"></path><path d="M269.2,138.46A225.26,225.26,0,0,1,309,156.14a207.21,207.21,0,0,1,34.74,26.27q-4.14-3.54-8.44-6.87A256.54,256.54,0,0,0,308.52,157c-12.52-7.3-25.88-13.13-39.32-18.54Z"></path><path d="M261.76,139.69a267.21,267.21,0,0,1,44.32,19.8,187.51,187.51,0,0,1,38.08,30q-4.41-4.18-9.07-8.05a218.72,218.72,0,0,0-29.51-21.13c-14-8.1-28.86-14.58-43.82-20.66Z"></path></g></g><g id="freepik--Table--inject-250"><path d="M49.17,472.7c128.67-.61,273-.61,401.66,0-128.67.62-273,.62-401.66,0Z" style="fill:#263238"></path></g></svg>
